<?xml version="1.0" encoding="utf-8"?>
<svg version="1.1" id="레이어_1" xmlns="http://www.w3.org/2000/svg" xmlns:xlink="http://www.w3.org/1999/xlink" x="0px"
	 y="0px" width="800px" height="200px" viewBox="0 0 800 200" style="enable-background:new 0 0 800 200;" xml:space="preserve">
<style type="text/css">
	.st0{
		fill:none;stroke:#FFFFFF;stroke-width:2;
		stroke-dashArray: 2000px;
		animation: line 9s forwards;
		}
		@keyframes line{
			0%{stroke-dashoffset: 2000px;}
			100%{stroke-dashoffset: 4000px;}
		}
</style>
<path class="st0" d="M174.251,66.547v71.582h22.217v-26.563h12.109c6.335,0,11.494-1.047,15.522-3.101
	c0.621,5.721,2.158,10.661,4.614,14.819c3.288,5.566,7.576,9.636,12.866,12.207c5.29,2.572,11.971,3.857,20.044,3.857
	c7.942,0,14.575-1.489,19.897-4.468c3.389-1.896,6.265-4.279,8.638-7.14v10.387h22.217v-29.053h1.953c2.018,0,3.825,0.554,5.42,1.66
	c1.172,0.847,2.506,2.686,4.004,5.518l11.823,21.875h24.993l-10.712-20.742c-0.52-1.042-1.553-2.524-3.098-4.447
	c-1.545-1.922-2.724-3.177-3.538-3.764c-1.204-0.879-3.124-1.758-5.758-2.639c3.29-0.748,5.879-1.692,7.768-2.832
	c2.963-1.79,5.292-4.126,6.986-7.007s2.541-6.307,2.541-10.278c0-0.754-0.042-1.481-0.102-2.197h9.643v53.906h22.119V84.223h12.666
	v53.906h22.217v-29.248h21.976c0.65,5.541,2.162,10.349,4.558,14.404c3.288,5.566,7.576,9.636,12.866,12.207
	c5.289,2.572,11.971,3.857,20.044,3.857c7.942,0,14.575-1.489,19.897-4.468c3.251-1.819,6.029-4.088,8.345-6.794v10.041h47.578
	h9.063h13.105v-11.866c2.973,4.056,6.594,7.144,10.884,9.229c5.289,2.572,11.971,3.857,20.044,3.857
	c7.942,0,14.575-1.489,19.897-4.468s9.391-7.145,12.207-12.5c2.815-5.354,4.224-12.215,4.224-20.581
	c0-11.523-3.223-20.483-9.668-26.88s-15.625-9.595-27.539-9.595c-11.621,0-20.688,3.255-27.197,9.766
	c-1.036,1.036-1.98,2.146-2.852,3.313V66.547h-22.168v53.955h-25.459V66.547h-22.119v10.088c-0.507-0.588-1.028-1.164-1.582-1.714
	c-6.445-6.396-15.625-9.595-27.539-9.595c-10.98,0-19.676,2.91-26.094,8.722v-7.501h-44.795h-9.893h-57.344v1.482
	c-3.558-0.984-8.453-1.482-14.717-1.482h-36.865v10.433c-0.594-0.711-1.213-1.402-1.875-2.059
	c-6.445-6.396-15.625-9.595-27.539-9.595c-11.621,0-20.687,3.255-27.197,9.766c-0.453,0.453-0.887,0.922-1.308,1.4
	c-0.874-1.574-1.935-2.997-3.228-4.232c-3.988-3.809-9.985-5.713-17.993-5.713H173.25 M210.872,94.843
	c-1.726,1.481-4.72,2.222-8.984,2.222h-5.42V81.098h6.299c4.134,0,6.95,0.781,8.447,2.344c1.497,1.563,2.246,3.467,2.246,5.713
	C213.46,91.466,212.597,93.362,210.872,94.843z M271.927,118.158c-2.604,3.093-6.283,4.639-11.035,4.639
	c-4.623,0-8.276-1.578-10.962-4.736c-2.686-3.157-4.028-8.35-4.028-15.576c0-7.292,1.351-12.516,4.053-15.674
	c2.702-3.157,6.282-4.736,10.742-4.736c4.655,0,8.341,1.555,11.06,4.663c2.718,3.109,4.077,8.032,4.077,14.771
	C275.833,109.516,274.531,115.066,271.927,118.158z M331.15,92.328c-0.928,1.205-2.124,1.953-3.589,2.246
	c-2.897,0.651-4.851,0.977-5.859,0.977h-9.326V81h9.717c4.036,0,6.787,0.619,8.252,1.855c1.465,1.237,2.197,3.011,2.197,5.322
	C332.542,89.74,332.078,91.124,331.15,92.328z M421.302,81.928h26.232c-2.012,3.645-3.363,7.813-4.063,12.5h-22.169V81.928z
	 M491.048,118.158c-2.604,3.093-6.283,4.639-11.035,4.639c-4.622,0-8.276-1.578-10.962-4.736c-2.686-3.157-4.028-8.35-4.028-15.576
	c0-7.292,1.351-12.516,4.053-15.674c2.702-3.157,6.282-4.736,10.742-4.736c4.654,0,8.341,1.555,11.06,4.663
	c2.718,3.109,4.077,8.032,4.077,14.771C494.954,109.516,493.651,115.066,491.048,118.158z M619.964,118.158
	c-2.604,3.093-6.283,4.639-11.035,4.639c-4.623,0-8.276-1.578-10.962-4.736c-2.686-3.157-4.028-8.35-4.028-15.576
	c0-7.292,1.351-12.516,4.053-15.674c2.701-3.157,6.282-4.736,10.742-4.736c4.654,0,8.341,1.555,11.06,4.663
	c2.718,3.109,4.077,8.032,4.077,14.771C623.87,109.516,622.567,115.066,619.964,118.158z"/>
</svg>
